<svg xmlns="http://www.w3.org/2000/svg" width="60cm" height="47cm" viewBox="-3 -3 1185 925"><rect width="100" height="80" x="80" y="60" rx="0" ry="0" style="fill:#b3b3ff;fill-opacity:1;stroke-opacity:1;stroke-width:4;stroke:#4c4cff"/><text x="130" y="109.844" font-size="22.578" style="fill:#000;fill-opacity:1;stroke:none;text-anchor:middle;font-family:Noto Sans CJK JP;font-style:normal;font-weight:400">
      <tspan x="130" y="109.844">HDMI 1</tspan>
    </text><rect width="100" height="80" x="80" y="180" rx="0" ry="0" style="fill:#b3b3ff;fill-opacity:1;stroke-opacity:1;stroke-width:4;stroke:#4c4cff"/><text x="130" y="229.844" font-size="22.578" style="fill:#000;fill-opacity:1;stroke:none;text-anchor:middle;font-family:Noto Sans CJK JP;font-style:normal;font-weight:400">
      <tspan x="130" y="229.844">HDMI 2</tspan>
    </text><rect width="100" height="80" x="80" y="300" rx="0" ry="0" style="fill:#b3b3ff;fill-opacity:1;stroke-opacity:1;stroke-width:4;stroke:#4c4cff"/><text x="130" y="349.844" font-size="22.578" style="fill:#000;fill-opacity:1;stroke:none;text-anchor:middle;font-family:Noto Sans CJK JP;font-style:normal;font-weight:400">
      <tspan x="130" y="349.844">HDMI 3</tspan>
    </text><rect width="100" height="80" x="80" y="420" rx="0" ry="0" style="fill:#b3b3ff;fill-opacity:1;stroke-opacity:1;stroke-width:4;stroke:#4c4cff"/><text x="130" y="469.844" font-size="22.578" style="fill:#000;fill-opacity:1;stroke:none;text-anchor:middle;font-family:Noto Sans CJK JP;font-style:normal;font-weight:400">
      <tspan x="130" y="469.844">HDMI 4</tspan>
    </text><rect width="100" height="80" x="220" rx="0" ry="0" style="fill:#b3b3ff;fill-opacity:1;stroke-opacity:1;stroke-width:4;stroke:#4c4cff"/><text x="270" y="49.844" font-size="22.578" style="fill:#000;fill-opacity:1;stroke:none;text-anchor:middle;font-family:Noto Sans CJK JP;font-style:normal;font-weight:400">
      <tspan x="270" y="49.844">SDI 1</tspan>
    </text><rect width="100" height="80" x="220" y="120" rx="0" ry="0" style="fill:#b3b3ff;fill-opacity:1;stroke-opacity:1;stroke-width:4;stroke:#4c4cff"/><text x="270" y="169.844" font-size="22.578" style="fill:#000;fill-opacity:1;stroke:none;text-anchor:middle;font-family:Noto Sans CJK JP;font-style:normal;font-weight:400">
      <tspan x="270" y="169.844">SDI 2</tspan>
    </text><rect width="100" height="80" x="220" y="240" rx="0" ry="0" style="fill:#b3b3ff;fill-opacity:1;stroke-opacity:1;stroke-width:4;stroke:#4c4cff"/><text x="270" y="289.844" font-size="22.578" style="fill:#000;fill-opacity:1;stroke:none;text-anchor:middle;font-family:Noto Sans CJK JP;font-style:normal;font-weight:400">
      <tspan x="270" y="289.844">SDI 3</tspan>
    </text><rect width="100" height="80" x="220" y="360" rx="0" ry="0" style="fill:#b3b3ff;fill-opacity:1;stroke-opacity:1;stroke-width:4;stroke:#4c4cff"/><text x="270" y="409.844" font-size="22.578" style="fill:#000;fill-opacity:1;stroke:none;text-anchor:middle;font-family:Noto Sans CJK JP;font-style:normal;font-weight:400">
      <tspan x="270" y="409.844">SDI 4</tspan>
    </text><rect width="100" height="80" x="220" y="540" rx="0" ry="0" style="fill:#ffb3b3;fill-opacity:1;stroke-opacity:1;stroke-width:4;stroke:#ff4c4c"/><text x="270" y="575.733" font-size="22.578" style="fill:#000;fill-opacity:1;stroke:none;text-anchor:middle;font-family:Noto Sans CJK JP;font-style:normal;font-weight:400">
      <tspan x="270" y="575.733">Media</tspan>
      <tspan x="270" y="603.955">Player 1</tspan>
    </text><rect width="100" height="80" x="220" y="640" rx="0" ry="0" style="fill:#ffb3b3;fill-opacity:1;stroke-opacity:1;stroke-width:4;stroke:#ff4c4c"/><text x="270" y="675.733" font-size="22.578" style="fill:#000;fill-opacity:1;stroke:none;text-anchor:middle;font-family:Noto Sans CJK JP;font-style:normal;font-weight:400">
      <tspan x="270" y="675.733">Media</tspan>
      <tspan x="270" y="703.955">Player 2</tspan>
    </text><rect width="100" height="80" y="540" rx="0" ry="0" style="fill:#ffb3b3;fill-opacity:1;stroke-opacity:1;stroke-width:4;stroke:#ff4c4c"/><text x="50" y="589.435" font-size="22.578" style="fill:#000;fill-opacity:1;stroke:none;text-anchor:middle;font-family:Noto Sans CJK JP;font-style:normal;font-weight:400">
      <tspan x="50" y="589.435">Still 1</tspan>
    </text><rect width="100" height="80" y="640" rx="0" ry="0" style="fill:#ffb3b3;fill-opacity:1;stroke-opacity:1;stroke-width:4;stroke:#ff4c4c"/><text x="50" y="689.435" font-size="22.578" style="fill:#000;fill-opacity:1;stroke:none;text-anchor:middle;font-family:Noto Sans CJK JP;font-style:normal;font-weight:400">
      <tspan x="50" y="689.435">Still 2</tspan>
    </text><rect width="100" height="80" y="840" rx="0" ry="0" style="fill:#ffb3b3;fill-opacity:1;stroke-opacity:1;stroke-width:4;stroke:#ff4c4c"/><text x="50" y="889.435" font-size="22.578" style="fill:#000;fill-opacity:1;stroke:none;text-anchor:middle;font-family:Noto Sans CJK JP;font-style:normal;font-weight:400">
      <tspan x="50" y="889.435">Still 20</tspan>
    </text><text x="50" y="761.622" font-size="22.578" style="fill:#000;fill-opacity:1;stroke:none;text-anchor:middle;font-family:Noto Sans CJK JP;font-style:normal;font-weight:400">
      <tspan x="50" y="761.622">.</tspan>
      <tspan x="50" y="789.844">.</tspan>
      <tspan x="50" y="818.066">.</tspan>
    </text><path d="M102.006 580H160m-60 100h57.994M100 880h60m0-300h38" style="fill:none;stroke-opacity:1;stroke-width:4;stroke-linecap:square;stroke:#000"/><path fill-rule="evenodd" d="m198 590 20-10-20-10z" style="fill:#000;fill-opacity:1;stroke-opacity:1;stroke-width:4;stroke-linecap:square;stroke:#000"/><path d="M160 580v300m0-200h38" style="fill:none;stroke-opacity:1;stroke-width:4;stroke-linecap:square;stroke:#000"/><path fill-rule="evenodd" d="m198 690 20-10-20-10z" style="fill:#000;fill-opacity:1;stroke-opacity:1;stroke-width:4;stroke-linecap:square;stroke:#000"/><rect width="300" height="200" x="660" rx="0" ry="0" style="fill:#b3b3ff;fill-opacity:1;stroke-opacity:1;stroke-width:4;stroke:#4c4cff"/><text x="810" y="109.844" font-size="22.578" style="fill:#000;fill-opacity:1;stroke:none;text-anchor:middle;font-family:Noto Sans CJK JP;font-style:normal;font-weight:400">
      <tspan x="810" y="109.844">Program</tspan>
    </text><rect width="300" height="200" x="660" y="360" rx="0" ry="0" style="fill:#b3b3ff;fill-opacity:1;stroke-opacity:1;stroke-width:4;stroke:#4c4cff"/><text x="810" y="469.844" font-size="22.578" style="fill:#000;fill-opacity:1;stroke:none;text-anchor:middle;font-family:Noto Sans CJK JP;font-style:normal;font-weight:400">
      <tspan x="810" y="469.844">Preview</tspan>
    </text><path d="M320 40h60m-60 120h60m-60 240h60m0-300h258" style="fill:none;stroke-opacity:1;stroke-width:4;stroke-linecap:square;stroke:#000"/><path fill-rule="evenodd" d="m638 110 20-10-20-10z" style="fill:#000;fill-opacity:1;stroke-opacity:1;stroke-width:4;stroke-linecap:square;stroke:#000"/><path d="M380 40v840m0-420h258" style="fill:none;stroke-opacity:1;stroke-width:4;stroke-linecap:square;stroke:#000"/><path fill-rule="evenodd" d="m638 470 20-10-20-10z" style="fill:#000;fill-opacity:1;stroke-opacity:1;stroke-width:4;stroke-linecap:square;stroke:#000"/><path d="M320 280h57.994M180 100h200M180 220h200M180 460h200M180 340h200m-60 240h60m-60 100h57.994" style="fill:none;stroke-opacity:1;stroke-width:4;stroke-linecap:square;stroke:#000"/><path d="M740 338V222" style="fill:none;stroke-opacity:1;stroke-width:4;stroke-linecap:square;stroke-dasharray:10;stroke:#000"/><path fill-rule="evenodd" d="m730 338 10 20 10-20zm20-116-10-20-10 20z" style="fill:#000;fill-opacity:1;stroke-opacity:1;stroke-width:4;stroke-linecap:square;stroke:#000"/><text x="860" y="247.511" font-size="22.578" style="fill:#000;fill-opacity:1;stroke:none;text-anchor:middle;font-family:Noto Sans CJK JP;font-style:normal;font-weight:400">
      <tspan x="860" y="247.511">Switch</tspan>
      
      <tspan x="860" y="303.955">Cut / Auto</tspan>
      <tspan x="860" y="332.177">(Mix / Dip / Wipe)</tspan>
    </text><path d="M960 100h198" style="fill:none;stroke-opacity:1;stroke-width:4;stroke-linecap:square;stroke:#000"/><path fill-rule="evenodd" d="m1158 110 20-10-20-10z" style="fill:#000;fill-opacity:1;stroke-opacity:1;stroke-width:4;stroke-linecap:square;stroke:#000"/><text x="1100" y="89.844" font-size="22.578" style="fill:#000;fill-opacity:1;stroke:none;text-anchor:middle;font-family:Noto Sans CJK JP;font-style:normal;font-weight:400">
      <tspan x="1100" y="89.844">Program</tspan>
    </text><rect width="100" height="80" x="220" y="740" rx="0" ry="0" style="fill:#ffb3b3;fill-opacity:1;stroke-opacity:1;stroke-width:4;stroke:#ff4c4c"/><text x="270" y="775.733" font-size="22.578" style="fill:#000;fill-opacity:1;stroke:none;text-anchor:middle;font-family:Noto Sans CJK JP;font-style:normal;font-weight:400">
      <tspan x="270" y="775.733">Color</tspan>
      <tspan x="270" y="803.955">Bars</tspan>
    </text><path d="M320 780h57.994" style="fill:none;stroke-opacity:1;stroke-width:4;stroke-linecap:square;stroke:#000"/><rect width="100" height="80" x="220" y="840" rx="0" ry="0" style="fill:#ffb3b3;fill-opacity:1;stroke-opacity:1;stroke-width:4;stroke:#ff4c4c"/><text x="270" y="875.733" font-size="22.578" style="fill:#000;fill-opacity:1;stroke:none;text-anchor:middle;font-family:Noto Sans CJK JP;font-style:normal;font-weight:400">
      <tspan x="270" y="875.733">Black</tspan>
      <tspan x="270" y="903.955">(BLK)</tspan>
    </text><path d="M320 880h57.994" style="fill:none;stroke-opacity:1;stroke-width:4;stroke-linecap:square;stroke:#000"/><rect width="300" height="200" x="760" y="720" rx="0" ry="0" style="fill:#b3b3ff;fill-opacity:1;stroke-opacity:1;stroke-width:4;stroke:#4c4cff"/><text x="910" y="829.844" font-size="22.578" style="fill:#000;fill-opacity:1;stroke:none;text-anchor:middle;font-family:Noto Sans CJK JP;font-style:normal;font-weight:400">
      <tspan x="910" y="829.844">AUX</tspan>
    </text><path d="M1020 160v538" style="fill:none;stroke-opacity:1;stroke-width:4;stroke-linecap:square;stroke:#000"/><path fill-rule="evenodd" d="m1010 698 10 20 10-20z" style="fill:#000;fill-opacity:1;stroke-opacity:1;stroke-width:4;stroke-linecap:square;stroke:#000"/><path d="M960 160h60m-60 360h60M380 820h358" style="fill:none;stroke-opacity:1;stroke-width:4;stroke-linecap:square;stroke:#000"/><path fill-rule="evenodd" d="m738 830 20-10-20-10z" style="fill:#000;fill-opacity:1;stroke-opacity:1;stroke-width:4;stroke-linecap:square;stroke:#000"/><path d="M1060 820h98" style="fill:none;stroke-opacity:1;stroke-width:4;stroke-linecap:square;stroke:#000"/><path fill-rule="evenodd" d="m1158 830 20-10-20-10z" style="fill:#000;fill-opacity:1;stroke-opacity:1;stroke-width:4;stroke-linecap:square;stroke:#000"/><text x="1120" y="809.844" font-size="22.578" style="fill:#000;fill-opacity:1;stroke:none;text-anchor:middle;font-family:Noto Sans CJK JP;font-style:normal;font-weight:400">
      <tspan x="1120" y="809.844">AUX</tspan>
    </text></svg>